<?xml version="1.0" encoding="UTF-8"?>
<svg width="27px" height="24px" viewBox="0 0 27 24" version="1.1" xmlns="http://www.w3.org/2000/svg" xmlns:xlink="http://www.w3.org/1999/xlink">
    <title>exchange-rates</title>
    <defs>
        <polygon id="path-1" points="0 0 12.5592606 0 12.5592606 14.432909 0 14.432909"></polygon>
        <polygon id="path-3" points="3.60897263e-15 0 13.4444316 0 13.4444316 13.1729974 3.60897263e-15 13.1729974"></polygon>
    </defs>
    <g id="Page-1" stroke="none" stroke-width="1" fill="none" fill-rule="evenodd">
        <g id="Sri-Lanka-Exchange-Rates" transform="translate(-1365.000000, -526.000000)">
            <g id="exchange-rates" transform="translate(1365.000000, 526.000000)">
                <path d="M14.9228614,17.128472 C15.3142755,17.128472 15.7057214,17.1249166 16.0970403,17.1305354 C16.2219563,17.1323131 16.2705259,17.0859021 16.263542,16.9636527 C16.2577962,16.8634659 16.262431,16.7627077 16.2617643,16.6622352 C16.2603358,16.4459893 16.2587486,16.4437036 16.0368837,16.4435449 C15.3386873,16.443037 14.6405226,16.4439258 13.9423262,16.4427513 C13.7601742,16.4424656 13.7453811,16.4213553 13.8085216,16.248695 C14.0003558,15.7243016 14.357041,15.3816794 14.9079413,15.249843 C15.3796382,15.1369583 15.8336214,15.2192409 16.277478,15.3762193 C16.4184252,15.4260587 16.4638838,15.3902187 16.4934066,15.2564459 C16.5526107,14.9881066 16.620259,14.7214498 16.6922246,14.4562215 C16.7219378,14.3465748 16.6927008,14.2946402 16.5847683,14.2569908 C16.1409751,14.1020759 15.686611,14.0252216 15.2158347,14.0274273 C13.8014743,14.0343006 12.6764047,14.8638255 12.2733402,16.2186961 C12.2215326,16.3927849 12.1478846,16.4530366 11.9669071,16.4479892 C11.5368278,16.4360214 11.5366056,16.4450687 11.5363833,16.8820684 C11.5362564,17.1278688 11.5362564,17.1278688 11.7743745,17.1281545 C12.1215363,17.1285355 12.1485829,17.1619628 12.0984896,17.5100134 C12.0876328,17.5852488 12.05738,17.6253743 11.9778273,17.6242315 C11.8720535,17.622676 11.7662161,17.6270567 11.6605057,17.6245489 C11.5735248,17.6225172 11.5348596,17.6600397 11.5362246,17.7473698 C11.5385102,17.8901264 11.5391134,18.03301 11.5359072,18.1757666 C11.533812,18.2695092 11.5727312,18.3112537 11.6676166,18.3088411 C11.7891676,18.3057301 11.9110679,18.3127774 12.032492,18.3075713 C12.1397896,18.3029683 12.1935972,18.3395384 12.2157868,18.4524866 C12.2720387,18.7390157 12.3683209,19.0128468 12.510887,19.2696627 C13.3486338,20.7787498 15.2287231,21.1116264 16.6433375,20.4671423 C16.7279058,20.428604 16.7612379,20.3819391 16.7376198,20.2827047 C16.6715905,20.0051594 16.612418,19.7257411 16.5592454,19.445434 C16.5379129,19.3329302 16.4944859,19.327978 16.3989656,19.3671512 C16.0111387,19.5262564 15.6060108,19.5813655 15.1876453,19.5606679 C14.5130988,19.527304 13.9802931,19.1312234 13.7844908,18.5091829 C13.7281754,18.3302371 13.7422701,18.3093807 13.9342948,18.3090633 C14.553129,18.3080792 15.1719951,18.3086506 15.7908293,18.3086506 C16.267034,18.3086506 16.2612247,18.3086189 16.2657007,17.8304778 C16.2671927,17.6723567 16.2208769,17.619565 16.0587877,17.6213109 C15.3395127,17.6289614 14.6201424,17.6246124 13.9008039,17.6246124 C13.5758635,17.6246124 13.5812919,17.6247076 13.5877361,17.3040211 C13.5905297,17.164058 13.6468133,17.1235515 13.7804274,17.1259007 C14.1611435,17.1325988 14.5420183,17.1282498 14.9228614,17.128472 M21.4432565,17.2802124 C21.441192,20.9778853 18.4145102,24.0040593 14.7223291,24 C11.0124979,23.9959008 7.99578398,20.9749966 7.99901935,17.2672288 C8.00232342,13.4706706 11.14662,10.5083673 14.8147702,10.5506198 C18.4488581,10.5924912 21.4452871,13.6014594 21.4432565,17.2802124" id="Fill-1" fill="#005FEA"></path>
                <g id="Group-5" transform="translate(0.000000, 0.878047)">
                    <mask id="mask-2" fill="white">
                        <use xlink:href="#path-1"></use>
                    </mask>
                    <g id="Clip-4"></g>
                    <path d="M6.65077652,10.1052936 C7.35973446,10.1052936 8.06872414,10.1028493 8.77765033,10.1078158 C8.88955096,10.1085951 8.92513695,10.0765963 8.92266085,9.96523533 C8.91631188,9.67965858 8.92101012,9.39385961 8.92043871,9.10815588 C8.92002602,8.90010007 8.91942287,8.89924296 8.70587521,8.89911598 C7.93342755,8.8987033 7.1609799,8.89924296 6.38853224,8.89813189 C6.34329582,8.8980684 6.28193301,8.91638519 6.25933067,8.86435536 C6.23574424,8.81003991 6.29653564,8.78346946 6.32726467,8.75169286 C6.6351898,8.43348239 6.8040407,8.05930574 6.8034693,7.6112588 C6.80324708,7.40802821 6.81527838,7.40174273 7.02473096,7.40113958 C7.32100573,7.40025072 7.61731225,7.39806033 7.91355527,7.4019332 C8.02139256,7.40332997 8.06612106,7.36441078 8.06364496,7.25368471 C8.05862928,7.02629628 8.05466117,6.79833645 8.06510523,6.57132896 C8.07180339,6.426001 8.01282144,6.3917483 7.87920733,6.39454184 C7.53017261,6.40174793 7.18082043,6.39368473 6.83172222,6.39860519 C6.72086917,6.40016068 6.66836318,6.35860666 6.64922103,6.25048367 C6.59922287,5.96833537 6.56439876,5.68612357 6.60474648,5.39959447 C6.66191897,4.99373645 6.947337,4.70562011 7.34757618,4.67139915 C7.65448548,4.64514615 7.96288678,4.65073325 8.2538919,4.77228431 C8.35750712,4.81555256 8.39318834,4.78790278 8.41407646,4.68393837 C8.4703601,4.40410744 8.53077056,4.1249114 8.59857758,3.84765181 C8.62956057,3.72089458 8.58245119,3.66718228 8.46689991,3.62861228 C7.85635103,3.42493726 7.23789769,3.40268412 6.62506319,3.58778839 C5.88274141,3.81203407 5.40558443,4.30528569 5.23654306,5.07420967 C5.15226045,5.45762407 5.18079908,5.842467 5.24136827,6.22515128 C5.26139928,6.35168628 5.2266704,6.40209712 5.09711963,6.39800203 C4.92801477,6.3926689 4.75852897,6.39984323 4.58929713,6.39644653 C4.49399906,6.3945101 4.4566671,6.43447688 4.45780992,6.52869562 C4.46076219,6.77201996 4.46228594,7.01547129 4.45723851,7.25873214 C4.45485765,7.3741247 4.509808,7.40364742 4.61272483,7.40180622 C4.82427257,7.39802858 5.03597904,7.40006025 5.24759027,7.40120307 C5.44126565,7.40225065 5.45685238,7.42320225 5.47367715,7.61944897 C5.52821482,8.2546636 5.26136754,8.76267658 4.74160896,9.06904621 C4.37130518,9.28732386 4.32467198,9.54988559 4.34940123,9.90844378 C4.35987703,10.0605017 4.40647848,10.1085316 4.55567932,10.1073571 C5.25400273,10.1017382 5.95238963,10.1048492 6.65077652,10.1052936 M7.23431052,0.000270129071 C9.29648831,0.0410940177 11.0499791,0.793097983 12.4872276,2.27843994 C12.5712245,2.36526212 12.5781766,2.4348786 12.5266547,2.5423032 C11.9513426,3.74140176 11.7200178,5.01027552 11.7976975,6.33314729 C11.8485845,7.19981368 12.0437202,8.03730655 12.3910724,8.83626116 C12.4841483,9.05041198 12.4827516,9.04822159 12.2625692,9.12663139 C9.91217985,9.9638703 8.31903235,11.5633668 7.4616672,13.9015978 C7.41443085,14.030482 7.37217844,14.1621914 7.34090976,14.2957103 C7.31249811,14.4169121 7.23669139,14.4325624 7.13053658,14.432909 C6.13054177,14.4357368 5.17200576,14.2292048 4.27130887,13.8050935 C2.05935884,12.7635129 0.64810939,11.0497667 0.159968693,8.65007757 C-0.304871277,6.36505087 0.247838463,4.30131759 1.75924295,2.52144683 C2.92942194,1.1434025 4.43409651,0.341019446 6.22174475,0.0749340374 C6.55611335,0.0251580985 6.8939104,-0.00309482598 7.23431052,0.000270129071" id="Fill-3" fill="#005FEA" mask="url(#mask-2)"></path>
                </g>
                <g id="Group-8" transform="translate(12.732824, 0.000000)">
                    <mask id="mask-4" fill="white">
                        <use xlink:href="#path-3"></use>
                    </mask>
                    <g id="Clip-7"></g>
                    <path d="M6.13790474,10.0341753 C6.13790474,10.1452506 6.14292043,10.2566116 6.13650797,10.3673059 C6.12996853,10.4808573 6.16796712,10.5311411 6.28916899,10.527046 C6.50049452,10.5199669 6.7124232,10.5195225 6.92371698,10.5271095 C7.05244238,10.5317443 7.08936165,10.476286 7.08656811,10.3572745 C7.08129846,10.1299813 7.08980608,9.9023072 7.08361584,9.67504575 C7.08018739,9.54854249 7.12361436,9.47943393 7.25354607,9.45689508 C7.44172959,9.42426137 7.62181817,9.36054943 7.79524034,9.28064762 C8.95307058,8.74730225 9.0922083,7.55566373 8.69806413,6.79492993 C8.53172107,6.47389417 8.25662012,6.26018778 7.94859975,6.08463871 C7.57889913,5.87397982 7.17078722,5.75382553 6.78210316,5.58789515 C6.56769839,5.49634298 6.35538877,5.39860056 6.17933178,5.24171747 C5.92257936,5.01293227 5.93140443,4.69370597 6.19723588,4.47526959 C6.3428813,4.35562322 6.51836688,4.31914838 6.69997921,4.30641869 C7.2054526,4.27102317 7.69200606,4.35314712 8.15268745,4.56364728 C8.28122239,4.62237527 8.33750602,4.61164551 8.36969531,4.46495251 C8.42626465,4.20696204 8.49000832,3.94970171 8.56822766,3.69758404 C8.6146069,3.54803401 8.56079936,3.48727434 8.42931215,3.43994276 C8.0736745,3.31182051 7.7096562,3.22522053 7.33170191,3.21147501 C7.19056427,3.20633234 7.13234419,3.15560406 7.13910585,3.0111332 C7.1477722,2.82644162 7.1381535,2.6409564 7.14167718,2.45591562 C7.14364536,2.3538559 7.0998692,2.31312725 6.99958719,2.31449227 C6.7880712,2.31734931 6.5762695,2.32042856 6.36497572,2.31315899 C6.23056798,2.30855599 6.18850605,2.36633163 6.19272811,2.49293013 C6.19904534,2.68311358 6.18742672,2.87399541 6.19628354,3.0639884 C6.20279123,3.20379275 6.15653897,3.27731385 6.01289349,3.30540805 C5.79391745,3.34826361 5.59122652,3.44041893 5.39301162,3.54301832 C4.29676641,4.11052116 4.09378978,5.72211242 5.29422162,6.43551464 C5.65166874,6.64795123 6.03457522,6.79578704 6.42389418,6.93352798 C6.70350289,7.03241322 6.98241322,7.13872675 7.19523076,7.35811547 C7.47560135,7.64715241 7.41893678,8.05532781 7.07326701,8.2616059 C6.89619419,8.36728454 6.70045539,8.40842588 6.49728829,8.41642558 C5.91899219,8.43921839 5.37396471,8.3066836 4.8590631,8.04964548 C4.75141628,7.99590143 4.70678301,7.99885371 4.67773646,8.12707119 C4.61472292,8.40534663 4.54618577,8.68305065 4.46266504,8.95570725 C4.41596835,9.10820955 4.46853784,9.17322302 4.60259638,9.22874478 C5.03673907,9.40864289 5.48751607,9.51463898 5.95511784,9.54397123 C6.08752565,9.55228838 6.15072966,9.59301704 6.13926977,9.73282139 C6.1310796,9.83265898 6.13768253,9.93367112 6.13790474,10.0341753 M13.4405556,6.69347336 C13.4480791,9.68983886 11.4805328,12.2984726 8.67914419,13.1538696 C8.54546659,13.1946935 8.47454858,13.1739641 8.39417059,13.0547304 C7.19516727,11.2755263 5.54529171,10.1643293 3.43981394,9.74091633 C2.59828947,9.57168449 1.74987637,9.55362167 0.900542668,9.68174392 C0.755532152,9.70361612 0.673979609,9.67695044 0.608362986,9.52927336 C0.207298437,8.62673527 -0.00853485941,7.6849288 0.000258466537,6.69731449 C0.0144801634,5.1001354 0.520874154,3.673077 1.54251895,2.44397955 C2.65041453,1.11110816 4.06931449,0.294408171 5.78861606,0.0673371949 C7.95002827,-0.218112577 9.83887913,0.404753301 11.4138368,1.91917354 C12.5584612,3.01979955 13.2058341,4.37686053 13.4013507,5.95029447 C13.4339527,6.21263398 13.4531266,6.47668772 13.4405556,6.69347336" id="Fill-6" fill="#005FEA" mask="url(#mask-4)"></path>
                </g>
            </g>
        </g>
    </g>
</svg>