<?xml version="1.0" encoding="UTF-8"?>
<svg width="18px" height="19px" viewBox="0 0 18 19" version="1.1" xmlns="http://www.w3.org/2000/svg" xmlns:xlink="http://www.w3.org/1999/xlink">
    <title>call</title>
    <defs>
        <polygon id="path-1" points="0 0.0122316295 17.8972116 0.0122316295 17.8972116 17.9198218 0 17.9198218"></polygon>
    </defs>
    <g id="Page-1" stroke="none" stroke-width="1" fill="none" fill-rule="evenodd">
        <g id="COMBANK-Personal-Banking--Navigation-2.0-Copy-4" transform="translate(-1367.000000, -243.000000)">
            <g id="call" transform="translate(1367.000000, 243.000000)">
                <g id="Group-3" transform="translate(0.000000, 0.065145)">
                    <mask id="mask-2" fill="white">
                        <use xlink:href="#path-1"></use>
                    </mask>
                    <g id="Clip-2"></g>
                    <path d="M0,4.02393808 C0,4.02393808 1.20267261,1.77894922 3.32739421,0.0952075724 C3.76837416,-0.185416036 4.16926503,0.335742094 4.16926503,0.335742094 C4.16926503,0.335742094 5.27255679,1.88698931 6.13363029,3.38251269 C6.89532294,4.70545256 6.57461024,4.94598708 6.57461024,4.94598708 L4.8908686,6.54955056 C4.8908686,6.54955056 5.77282851,11.1998846 11.2650334,12.9237154 L11.3853007,12.9237154 C11.3853007,12.9237154 12.0267261,12.2422009 12.5879733,11.6007755 C13.1492205,10.9593501 13.6703786,11.360241 13.6703786,11.360241 C13.6703786,11.360241 15.9259911,12.52078 17.1581292,13.4448735 C17.9599109,14.0462098 17.9198218,14.126388 17.8797327,14.3669225 C17.8396437,14.607457 15.95702,16.811555 13.8708241,17.8546731 C12.908686,18.3357421 7.57683742,16.0907532 5.05122494,13.1642499 C2.52561247,10.5584592 0.120267261,7.47159955 0,4.02393808" id="Fill-1" fill="#005FEA" mask="url(#mask-2)"></path>
                </g>
                <path d="M14.5432183,8.45495679 L13.3427506,8.38243563 C13.3473207,8.30630646 13.349686,8.2308588 13.349686,8.15813719 C13.349686,6.13552249 11.7041492,4.48998575 9.68153452,4.48998575 C9.64152561,4.48998575 9.60155679,4.49066726 9.56194878,4.49203029 L9.52045657,3.29007929 C9.5736147,3.28823519 9.62781514,3.28731314 9.68153452,3.28731314 C12.3673029,3.28731314 14.5523586,5.47236882 14.5523586,8.15813719 C14.5523586,8.25491225 14.5492717,8.35481425 14.5432183,8.45495679" id="Fill-4" fill="#005FEA"></path>
                <path d="M17.8349051,8.43827572 L16.6328739,8.39910869 C16.6356,8.31544276 16.636963,8.23434254 16.636963,8.15813318 C16.636963,4.32285033 13.5167492,1.20267661 9.68150646,1.20267661 C9.63981381,1.20267661 9.59848196,1.20299733 9.55674922,1.20407973 L9.52564009,0.00180801782 C9.5777559,0.000444988864 9.62939065,4.00890868e-06 9.68150646,4.00890868e-06 C14.1799029,4.00890868e-06 17.8396356,3.65969666 17.8396356,8.15813318 C17.8396356,8.2473314 17.8380321,8.34158085 17.8349051,8.43827572" id="Fill-6" fill="#005FEA"></path>
            </g>
        </g>
    </g>
</svg>