<?xml version="1.0" encoding="UTF-8"?>
<svg width="17px" height="23px" viewBox="0 0 17 23" version="1.1" xmlns="http://www.w3.org/2000/svg" xmlns:xlink="http://www.w3.org/1999/xlink">
    <title>location </title>
    <g id="Page-1" stroke="none" stroke-width="1" fill="none" fill-rule="evenodd">
        <g id="COMBANK-Personal-Banking--Navigation-2.0-Copy-4" transform="translate(-1368.000000, -378.000000)" fill="#005FEA" fill-rule="nonzero">
            <g id="location-" transform="translate(1368.000000, 378.000000)">
                <ellipse id="Oval" transform="translate(8.178580, 8.158559) rotate(-0.916654) translate(-8.178580, -8.158559) " cx="8.17857981" cy="8.15855917" rx="2.05426863" ry="2.05420558"></ellipse>
                <path d="M16.3170659,8.14491691 C16.3170659,3.65672779 12.6656332,0.00529512894 8.17744413,0.00529512894 C3.68925501,0.00529512894 0.0378853868,3.65672779 0.0378853868,8.14491691 C0.0378853868,14.7089857 8.19774212,21.9936963 8.19774212,21.9936963 C8.19774212,21.9936963 16.3170659,14.2767393 16.3170659,8.14491691 L16.3170659,8.14491691 Z M8.17744413,12.0931289 C6.00625215,12.0931289 4.23982235,10.3267622 4.23982235,8.15550716 C4.23982235,5.98431519 6.00625215,4.21788539 8.17744413,4.21788539 C10.3486361,4.21788539 12.1150659,5.98425215 12.1150659,8.15550716 C12.1150659,10.3266991 10.3486991,12.0931289 8.17744413,12.0931289 Z" id="Shape"></path>
            </g>
        </g>
    </g>
</svg>