<?xml version="1.0" encoding="UTF-8"?>
<svg width="20px" height="20px" viewBox="0 0 20 20" version="1.1" xmlns="http://www.w3.org/2000/svg" xmlns:xlink="http://www.w3.org/1999/xlink">
    <title>calculator</title>
    <g id="Page-1" stroke="none" stroke-width="1" fill="none" fill-rule="evenodd">
        <g id="COMBANK-Personal-Banking--Navigation-2.0-Copy-4" transform="translate(-1366.000000, -448.000000)" fill="#005FEA" fill-rule="nonzero">
            <g id="calculator" transform="translate(1366.000000, 448.000000)">
                <path d="M20,10.5941016 L20,20 L10.5941016,20 L10.5941016,10.5941016 L20,10.5941016 Z M9.4059375,10.5941016 L9.4059375,20 L1.63424829e-13,20 L1.63424829e-13,10.5941016 L9.4059375,10.5941016 Z M6.16890625,12.9909375 L4.70296875,14.4569141 L3.23703125,12.9909375 L2.396875,13.8310938 L3.8628125,15.2970312 L2.396875,16.7630078 L3.23699219,17.6031641 L4.70292969,16.1371875 L6.16886719,17.6031641 L7.0090625,16.7630078 L5.543125,15.2970703 L7.0090625,13.8310938 L6.16890625,12.9909375 Z M17.9642578,15.693125 L12.6298047,15.693125 L12.6298047,16.8812891 L17.9642578,16.8812891 L17.9642578,15.693125 Z M17.9642578,13.7128516 L12.6298047,13.7128516 L12.6298047,14.9010156 L17.9642578,14.9010156 L17.9642578,13.7128516 Z M20,1.27897692e-13 L20,9.40589844 L10.5941016,9.40589844 L10.5941016,1.27897692e-13 L20,1.27897692e-13 Z M9.4059375,1.45661261e-13 L9.4059375,9.4059375 L1.63424829e-13,9.4059375 L1.63424829e-13,1.45661261e-13 L9.4059375,1.45661261e-13 Z M5.29703125,2.03574219 L4.10886719,2.03574219 L4.10886719,4.10886719 L2.03570313,4.10886719 L2.03570313,5.29707031 L4.10886719,5.29707031 L4.10886719,7.37023438 L5.29703125,7.37023438 L5.29703125,5.29707031 L7.37019531,5.29707031 L7.37019531,4.10890625 L5.29703125,4.10890625 L5.29703125,2.03574219 Z M17.9642578,4.10886719 L12.6298047,4.10886719 L12.6298047,5.29703125 L17.9642578,5.29703125 L17.9642578,4.10886719 Z" id="Combined-Shape"></path>
            </g>
        </g>
    </g>
</svg>